<svg xmlns="http://www.w3.org/2000/svg" viewBox="0 0 812.74 771.96"><defs><style>.cls-1,.cls-2{fill:#fff;}.cls-2{font-size:115.68px;font-family:DINPro-Bold, DIN Pro;font-weight:700;}.cls-3{font-size:67.48px;}.cls-4{letter-spacing:-0.01em;}.cls-5{font-size:607.31px;}</style></defs><g id="Layer_2" data-name="Layer 2"><g id="Layer_17" data-name="Layer 17"><path class="cls-1" d="M393.86,1.22l2.67,1.52V4.33q0,119.52,0,239a60.67,60.67,0,0,1-.59,7,1.34,1.34,0,0,1-1,.83c-3.23.37-6.47.66-10.1,1-.5-4-1.18-8.08-1.47-12.15-.59-8.25-1-16.51-1.4-24.77-.24-5.35-.24-10.71-.31-16.06,0-2.75-1.31-3.63-4-2.73a10,10,0,0,1-2.12.33c-4.27.47-8.56.83-12.82,1.4-4.64.63-9.26,1.43-13.88,2.2-1.22.21-2.41.58-3.85.94.41,2.29.79,4.57,1.22,6.83q3.25,16.82,6.53,33.62,1.51,7.72,3,15.46c.34,1.73,0,2.33-1.77,2.78-2.45.63-4.89,1.23-7.64,1.93l-18.17-55.71c-1.19.37-2.28.69-3.35,1.06a216.3,216.3,0,0,0-28,11.77,14,14,0,0,0-3,1.87c-.37.32-.24,1.15-.4,2.11-1,.52-.69,1.54-.18,2.77q9.57,23.35,19.07,46.74c.78,1.92.55,2.41-1.28,3.4-1.49.81-2.92,1.74-4.4,2.58s-2.13.69-3-.81c-1.55-2.63-3-5.31-4.47-8q-11.07-20-22.13-40a2.67,2.67,0,0,0-.61-.77c.88,1.51-.31,2-1.22,2.54a203,203,0,0,0-27,21c-1.48,1.39-1.93,3-.85,4.78a89.81,89.81,0,0,0,6.1,9.11c7.77,9.7,15.7,19.27,23.57,28.9,1.2,1.47,1.16,2.62-.13,4.05-.84.94-1.73,1.84-2.61,2.75-1.63,1.68-2.77,1.73-4.49.12-2.08-2-4.1-4-6.15-6l-29.54-28.68a1.93,1.93,0,0,0-.35-.21,9.47,9.47,0,0,0-.78.68c-2.42,2.65-4.88,5.28-7.24,8a64.89,64.89,0,0,0-11.15,18.55,1.77,1.77,0,0,0,.43,1.52Q224,305.39,233,314.64q6,6.15,11.89,12.31a1.53,1.53,0,0,1,0,2.5c-1.25,1.2-2.43,2.46-3.65,3.7-1.41,1.43-2.49,1.52-4.09.26-2.29-1.8-4.57-3.63-6.84-5.46-5.4-4.32-10.75-8.7-16.22-12.94-2-1.55-4.27-2.77-6.63-4.27-.57,1.31-1.22,2.53-1.64,3.81-1.89,5.8-3.67,11.63-4.23,17.71-.27,2.86-.34,5.75-.37,8.62,0,.47.61,1.1,1.1,1.4,6.56,4.05,13.15,8.05,19.74,12.07l1.05.68c-2.65,3.39-5.24,6.73-7.85,10.05-5.48,6.95-11.07,13.82-16.4,20.86A27.85,27.85,0,0,0,193.69,397a8.84,8.84,0,0,0,2.23,8.43,50.2,50.2,0,0,0,8.13,6.91c1.87,1.24,4.4,1.65,6.68,2.23s2.79,1.23,2,3.27c-4.72,11.91-4.07,23.83-.08,35.76.94,2.82,2,5.61,3.05,8.4,1.93,5.1,5.75,9,9.11,13.24a30.91,30.91,0,0,0,3.89,4,30,30,0,0,0,4.14,2.89,2.22,2.22,0,0,1,1,3.06c-1.46,3.7-2.86,7.44-4.47,11.08s-3.47,7.12-5.16,10.7a42.51,42.51,0,0,1-8.38,12,21.37,21.37,0,0,1-13.54,6.21c-1.78.18-3.76.7-4,3a1.29,1.29,0,0,1-.27.48C193,536.83,188.23,545,183,553a187.47,187.47,0,0,1-24.2,29.26c-4.26,4.28-8.71,8.38-13.08,12.57-.22.21-.42.46-.74.81,2.13.28,4.1.57,6.08.77q6.28.63,12.59,1.16a2.36,2.36,0,0,0,1.53-.4c1.92-1.63,3.77-3.34,5.65-5,5.12-4.55,9.21-9.91,13.29-15.29,5.2-6.85,10.68-13.52,15.64-20.52,3.44-4.88,6.19-10.2,9.3-15.29a3.59,3.59,0,0,1,1.45-1.39,37.49,37.49,0,0,0,10.32-6.89A22.41,22.41,0,0,1,224,530.2a225.1,225.1,0,0,1-11.22,34.18c-4.68,11.08-10.16,21.74-18.2,31.44,2.71-.33,5.05-.66,7.4-.9,4.48-.45,9-.81,13.44-1.31,3.17-.35,6.47,0,9.46-1.35a4.7,4.7,0,0,0,2.29-1.85c2.12-4.59,4.27-9.19,6-13.92,6.32-17.25,12.12-34.66,17.11-52.31.08-.31.21-.61.38-1.08.27.44.47.78.69,1.11q2.9,4.49,5.81,9a8.57,8.57,0,0,1,1.69,5.37c-.17,3,.29,6.1.19,9.15-.25,7-.58,14-1,20.93-.35,5.25-.84,10.49-1.52,15.7-.62,4.79-1.57,9.54-2.38,14.31-.06.32-.1.64-.16,1-.25,1.36.25,2.14,1.57,2.93,7.63,4.56,15.18,9.25,22.73,14,1.44.89,2.73,2,4.13,3a4.66,4.66,0,0,0,1.28.38,3.4,3.4,0,0,0,.36-1.24c-1.39-11-1.19-22-1.41-33a202.35,202.35,0,0,1,1.83-30.12c.19-1.54.44-3.08.52-4.63a3.14,3.14,0,0,0-.54-1.76c-5.39-8.32-10.91-16.56-16.19-24.94a98.94,98.94,0,0,1-5.09-9.94c-2-4.1-3.86-8.24-5.77-12.37a77.57,77.57,0,0,1-6-21.63c-.61-4.21-1.33-8.4-1.8-12.62-.39-3.45-.47-6.93-.74-10.39-.41-5.15-.89-10.29-1.3-15.44-.15-1.82-.24-3.65-.26-5.48a1.88,1.88,0,0,0-1.34-1.94,48.18,48.18,0,0,1-19.4-16.52,9.39,9.39,0,0,1-1.14-2.2c-.75-2.2,0-3.7,1.86-4.35,4.63-1.55,8.49-4.39,12.31-7.23a103.48,103.48,0,0,0,26.52-29.7,326.63,326.63,0,0,0,21-39.89c.44-1,1.21-1.16,2.09-1.35,8-1.74,16-3.23,23.91-5.26,20.28-5.22,40.62-10.27,60.33-17.27,6.54-2.33,12.85-5.23,19.28-7.84,1.17-.48,2.39-.82,3.8-1.29v2.06c0,6.87,0,13.73,0,20.59a2.31,2.31,0,0,1-1.66,2.55,200.37,200.37,0,0,1-42.51,13.22C340,342.1,327.51,344,315,345.92c-7.18,1.09-14.43,1.83-21.64,2.78a1.89,1.89,0,0,0-1.22.9c-3.34,6.78-6.63,13.59-9.95,20.37a23.91,23.91,0,0,1-1.32,2.09c.37.09.81.17,1.23.3,4.85,1.63,9.62.78,14.17-.88,6.66-2.43,13.18-5.19,19.75-7.84a102.21,102.21,0,0,1,27.84-6.86,46.31,46.31,0,0,1,17,1.34,3.31,3.31,0,0,1,1.5.74c4.38,4.61,8.74,9.22,13,13.93a3.11,3.11,0,0,1,.32,2.32c-.95,5.22-1.85,10.45-3,15.63-2.64,11.67-5.47,23.31-8.12,35a56.22,56.22,0,0,0-.61,6c-.3,2.47-2,3.82-4.6,3.72-2.44-.1-3.81-1.65-4.08-4.12-.24-2.3,1-4.26,1.25-6.41a4.59,4.59,0,0,0-.13-2.09,22.54,22.54,0,0,0-5.51-8.12,2.14,2.14,0,0,0-2.51-.58c-4.16,1.34-8.3,2.73-12.52,3.88-5.19,1.41-10.51,1.17-15.84.81a81.79,81.79,0,0,1-21-4.51c-4.22-1.46-8.29-3.32-12.4-5.08-2-.85-3.84-2.13-5.91-2.77a35,35,0,0,0-13-1.72,2.72,2.72,0,0,0-2.76,3.05c.5,4.45,1.14,8.89,1.76,13.33,1.58,11.43,5.31,22.38,8.31,33.5,4.52,16.77,11.59,32.66,18.31,48.66,3.53,8.4,7.5,16.66,11.74,24.75,1.9,3.65,1.43,6.94.68,10.55a51.11,51.11,0,0,0-.28,20.72,21,21,0,0,0,6.23,11.34c4.35,4.12,8.38,8.56,12.62,12.79a95.77,95.77,0,0,0,17.08,13c1.5.94,4.95-.25,5.65-1.93s1.27-3.45.43-5.31a3,3,0,0,1-.35-1.86,4.5,4.5,0,0,1,1.3-2.51,2.59,2.59,0,0,1,3.35.17,57.75,57.75,0,0,0,25,12.64,44.44,44.44,0,0,0,18.55.33c.28,0,.56-.1.85-.13.08,0,.17.05.32.09V630.6c-5.19,1-10.33,2.13-15.73,1.65a91.88,91.88,0,0,1-19.52-3.89,56.6,56.6,0,0,1-18.5-10.27c-12.2-9.8-23.88-20.13-35.49-30.54a53.28,53.28,0,0,1-7.41-8c-.87-1.2-1.92-2.27-3.18-3.73,0,.78-.1,1.2-.08,1.61.34,5.7.37,11.44,1.09,17.1,1.46,11.31,3.17,22.58,5,33.83,1.19,7.26,2.49,14.53,4.36,21.65.92,3.51,1.11,7.14,2.29,10.7-.55-.32-1.13-.6-1.65-1a27,27,0,0,1-2.24-1.71c-5.14-4.52-10.09-9.22-16-12.93-6.32-4-12.12-8.73-18.62-12.38-8.64-4.85-17.86-8.63-28-9.73-4.52-.49-9.09-.63-13.59-1.26-8.16-1.13-16.36-.9-24.56-.94-3.21,0-6.42.1-9.62,0-5.53-.27-11.06-.72-16.59-1-1.95-.12-3.91,0-5.87-.09-1.19,0-2.38-.15-3.57-.22-7.66-.47-15.36-.57-22.95-1.5a103.57,103.57,0,0,1-27.9-7.61,82.41,82.41,0,0,1-15.61-8.15c-.74-.52-1.28-1.1-.94-1.91a2.34,2.34,0,0,1,1.34-1.11c4.87-1.6,8.83-4.73,13.24-7.11,14.52-7.86,27.92-17.1,39.42-28.72a284.12,284.12,0,0,0,23.14-26.79c1-1.29,2.18-2.46,3-3.82,2.26-3.59,4.41-7.25,6.53-10.92.16-.28-.1-.94-.37-1.26-1.54-1.81-3.2-3.53-4.72-5.35s-3.19-4-4.68-6a28.68,28.68,0,0,1-4.2-10.13,66,66,0,0,1-2.42-16,65,65,0,0,1,2.64-19.36A179.2,179.2,0,0,1,182,444.27c2.76-6.26,5.08-12.69,7.56-19.07a21.1,21.1,0,0,0,.67-2.84c-4.14-1.61-7.11-4.42-9.79-7.59-6.09-7.2-6.55-16.41-1-24,2.61-3.55,5.45-6.95,8.29-10.34a32.16,32.16,0,0,0,7-15.67,24,24,0,0,0,.05-4.94c0-.31-.48-.76-.84-.9-13.17-5.1-26.36-10.13-39.5-15.26-6.42-2.51-12.74-5.27-19.16-7.77q-25.84-10-51.76-20c-9.12-3.48-18.26-6.91-27.48-10.13-18.34-6.39-36.11-14-53.77-21.92-.26-.12-.52-.23-.77-.37-.91-.47-1.8-1-1.5-2.19a2.44,2.44,0,0,1,2.72-1.75c1.91.14,3.82.35,5.73.53l36.38,3.44,33.52,3.13,33.51,3.17,36.53,3.41q18.12,1.69,36.23,3.44c1,.1,1.47-.07,1.82-1a67.49,67.49,0,0,1,13-21.64,1.85,1.85,0,0,0,.18-.39c-.91-.9-1.86-1.85-2.83-2.78l-42.68-41.4c-8.48-8.23-16.91-16.48-25.4-24.7q-14.44-14-29-27.91c-.71-.69-1.45-1.35-2.16-2L75.71,153.15c-1.13-1.12-2.32-2.2-3.43-3.33s-1.36-2.33-.58-3.18c1-1.07,2.13-.77,3.28-.22l41.5,19.63q38.17,18,76.34,36,20.12,9.49,40.21,19c2.1,1,4.2,2,6.36,2.85a2.38,2.38,0,0,0,1.91-.25c3.28-2.3,6.44-4.77,9.74-7s6.71-4.42,10.12-6.53c1-.62,1.32-1.13.85-2.28Q239.92,152.8,217.88,97.7q-10.4-25.95-20.78-51.9c-.19-.46-.35-.94-.5-1.42a1.92,1.92,0,0,1,.88-2.51,2.17,2.17,0,0,1,2.82.62q3,3.34,5.94,6.71l36,40.74q16.48,18.7,33,37.39Q293.08,147.6,311,167.86c2.59,2.94,5.22,5.86,7.77,8.83a2.84,2.84,0,0,0,3.34,1c6.38-1.74,12.81-3.34,19.21-5a3.12,3.12,0,0,0,2.56-2.42c6.61-23,13.35-45.94,20.05-68.9q14-47.94,28-95.87A36.64,36.64,0,0,1,393.86,1.22ZM282,385l.13.49,1.35.36c3.58.87,7.18,1.66,10.72,2.65a9.35,9.35,0,0,0,5.19.09A88.72,88.72,0,0,1,322.9,385c2.34,0,4.69.16,7,.11a57.8,57.8,0,0,1,25.61,5.35,2.55,2.55,0,0,0,1.48.24,4.54,4.54,0,0,0,3.08-5.32c-.5-1.66-1.88-2.5-3.2-3.38-10.74-7.24-23-9.19-35.72-8.69-9.05.35-17.75,2.74-26.18,5.75C290.51,380.63,286.31,383,282,385Zm7.68,17.3c.54.47.9.83,1.31,1.14,4.3,3.2,9,5.65,14.49,6.32s11,1.06,16.48,1.31c8.07.38,15.39-2.52,22.84-5.06a3.63,3.63,0,0,0-.25-.57,27,27,0,0,0-14.94-10.36A43.94,43.94,0,0,0,313.87,394,55.77,55.77,0,0,0,289.65,402.33Z"/><path class="cls-1" d="M396.35,511.53c0,3.82,0,7.32,0,10.83,0,1.73-.3,3.46-.36,5.19,0,.77-.23,1.13-1.09,1.25-7.45,1.05-14.8,1.12-21.88-1.79-1.75-.71-3.48-1.46-5.22-2.19a3.2,3.2,0,0,0-1.06-.4c-2.87,0-5.78-.58-8.53.8-4.4,2.22-8.89,4.28-13.23,6.6-3.15,1.69-6.15,3.65-9.15,5.57a1.39,1.39,0,0,1-2.07-.26c-.65-.67-1-1.26-.2-2.11,6.44-7.09,12.72-14.3,19.31-21.25,3.66-3.86,8.55-6,13.93-6.91a8.16,8.16,0,0,1,3.55.08c2.94.84,5.76,2,8.69,2.86a37.71,37.71,0,0,0,7.35,1.66C389.69,511.74,393.05,511.53,396.35,511.53Z"/><path class="cls-1" d="M396.52,543.15c0,2.57,0,5.09,0,7.6a1.85,1.85,0,0,1-.63,1.13c-6.47,5.86-14.28,7.71-22.74,5.82-5.75-1.28-11.2-3.75-16.85-5.52-3.22-1-6.57-1.64-9.83-2.53a42.41,42.41,0,0,1-4.78-1.7c-.17-.07-.27-.86-.09-1.06a8.25,8.25,0,0,1,1.74-1.42c3.67-2.34,7.36-4.65,11-7,.24-.15.51-.27.75-.42a3.81,3.81,0,0,1,4.42,0c5.56,3.17,11.78,4.5,18.13,5.29A63.46,63.46,0,0,0,396.52,543.15Z"/><path class="cls-1" d="M396.48,484.9V495a62.6,62.6,0,0,1-6.68,1.88c-2.81.48-5.43-.54-7.79-1.89-4.17-2.4-8.44-4.66-12-8a7.77,7.77,0,0,0-6.18-2.47,1.74,1.74,0,0,1-.85-.1c-2.3-1-4.58-.52-6.67.4a7.63,7.63,0,0,1-7.14-.21c-2.49-1.38-4.94-2.81-7.3-4.36-2-1.32-1.79-3.67.48-4.54a41.81,41.81,0,0,1,6.19-1.66,34.45,34.45,0,0,1,12.15-.42,13.12,13.12,0,0,1,3.06.72c5.89,2.32,11.47,5.07,15.8,9.74,2.3,2.48,5.58,2.51,8.7,2.21C391,486.07,393.63,485.41,396.48,484.9Z"/><text class="cls-2" transform="translate(413.07 99.02)">LABOR<tspan class="cls-3"><tspan x="0" y="80.97">M</tspan><tspan class="cls-4" x="54.72" y="80.97">O</tspan><tspan x="97.51" y="80.97">VEMENT</tspan></tspan><tspan class="cls-5"><tspan x="0" y="530.83">X</tspan></tspan></text></g></g></svg>