<svg id="Layer_1" data-name="Layer 1" xmlns="http://www.w3.org/2000/svg" viewBox="0 0 396.6 659.49"><defs><style>.cls-1{fill:#fff;}</style></defs><g id="Layer_2" data-name="Layer 2"><g id="Layer_17" data-name="Layer 17"><path class="cls-1" d="M427.12,27.19l2.67,1.52V269.3a60.62,60.62,0,0,1-.59,7,1.34,1.34,0,0,1-1,.83c-3.23.37-6.47.66-10.1,1-.5-4-1.18-8.08-1.47-12.15-.59-8.25-1-16.51-1.4-24.77-.24-5.35-.24-10.71-.31-16.06,0-2.75-1.31-3.63-4-2.73a9.55,9.55,0,0,1-2.12.33c-4.27.47-8.56.83-12.82,1.4-4.64.63-9.26,1.43-13.88,2.2-1.22.21-2.41.58-3.85.94.41,2.29.79,4.57,1.22,6.83Q382.71,251,386,267.74l3,15.46c.34,1.73,0,2.33-1.77,2.78-2.45.63-4.89,1.23-7.64,1.93L361.42,232.2c-1.19.37-2.28.69-3.35,1.06a217.52,217.52,0,0,0-28,11.77,14.24,14.24,0,0,0-3,1.87c-.37.32-.24,1.15-.4,2.11-1,.52-.69,1.54-.18,2.77q9.57,23.36,19.07,46.74c.78,1.92.55,2.41-1.28,3.4-1.49.81-2.92,1.74-4.4,2.58s-2.13.69-3-.81c-1.55-2.63-3-5.31-4.47-8q-11.07-20-22.13-40a2.84,2.84,0,0,0-.61-.77c.88,1.51-.31,2-1.22,2.54a203.22,203.22,0,0,0-27,21c-1.48,1.39-1.93,3-.85,4.78a88.17,88.17,0,0,0,6.1,9.11c7.77,9.7,15.7,19.27,23.57,28.9,1.2,1.47,1.16,2.62-.13,4.05-.84.94-1.73,1.84-2.61,2.75-1.63,1.68-2.77,1.73-4.49.12-2.08-2-4.1-4-6.15-6l-29.54-28.68a2.5,2.5,0,0,0-.35-.21c-.27.22-.53.44-.78.68-2.42,2.65-4.88,5.28-7.24,8a64.93,64.93,0,0,0-11.15,18.55,1.73,1.73,0,0,0,.43,1.52q9,9.33,18,18.58,6,6.15,11.89,12.31a1.55,1.55,0,0,1,.37,2.14,1.58,1.58,0,0,1-.37.36c-1.25,1.2-2.43,2.46-3.65,3.7-1.41,1.43-2.49,1.52-4.09.26-2.29-1.8-4.57-3.63-6.84-5.46-5.4-4.32-10.75-8.7-16.22-12.94-2-1.55-4.27-2.77-6.63-4.27-.57,1.31-1.22,2.53-1.64,3.81-1.89,5.8-3.67,11.63-4.23,17.71-.27,2.86-.34,5.75-.37,8.62,0,.47.61,1.1,1.1,1.4,6.56,4.05,13.15,8.05,19.74,12.07l1.05.68c-2.65,3.39-5.24,6.73-7.85,10.05-5.48,6.95-11.07,13.82-16.4,20.86A27.83,27.83,0,0,0,227,423a8.82,8.82,0,0,0,2.23,8.43,49.21,49.21,0,0,0,8.13,6.91c1.87,1.24,4.4,1.65,6.68,2.23s2.79,1.23,2,3.27c-4.72,11.91-4.07,23.83-.08,35.76.94,2.82,2,5.61,3.05,8.4,1.93,5.1,5.75,9,9.11,13.24a30,30,0,0,0,3.89,4,29,29,0,0,0,4.14,2.89,2.22,2.22,0,0,1,1,3l0,.1c-1.46,3.7-2.86,7.44-4.47,11.08s-3.47,7.12-5.16,10.7a42.51,42.51,0,0,1-8.38,12,21.36,21.36,0,0,1-13.54,6.21c-1.78.18-3.76.7-4,3a1.42,1.42,0,0,1-.27.48c-5,8.17-9.79,16.34-15,24.34a188,188,0,0,1-24.2,29.26c-4.26,4.28-8.71,8.38-13.08,12.57-.22.21-.42.46-.74.81,2.13.28,4.1.57,6.08.77q6.27.63,12.59,1.16a2.32,2.32,0,0,0,1.53-.4c1.92-1.63,3.77-3.34,5.65-5,5.12-4.55,9.21-9.91,13.29-15.29,5.2-6.85,10.68-13.52,15.64-20.52,3.44-4.88,6.19-10.2,9.3-15.29a3.59,3.59,0,0,1,1.45-1.39,37.27,37.27,0,0,0,10.32-6.89,22,22,0,0,1,3.17-2.59A225.1,225.1,0,0,1,246,590.35c-4.68,11.08-10.16,21.74-18.2,31.44,2.71-.33,5-.66,7.4-.9,4.48-.45,9-.81,13.44-1.31,3.17-.35,6.47,0,9.46-1.35a4.68,4.68,0,0,0,2.29-1.85c2.12-4.59,4.27-9.19,6-13.92,6.32-17.25,12.12-34.66,17.11-52.31.08-.31.21-.61.38-1.08.27.44.47.78.69,1.11q2.89,4.5,5.81,9a8.57,8.57,0,0,1,1.69,5.37c-.17,3,.29,6.1.19,9.15-.25,7-.58,14-1,20.93-.35,5.25-.84,10.49-1.52,15.7-.62,4.79-1.57,9.54-2.38,14.31-.06.32-.1.64-.16,1-.25,1.36.25,2.14,1.57,2.93,7.63,4.56,15.18,9.25,22.73,14,1.44.89,2.73,2,4.13,3A4.39,4.39,0,0,0,317,646a3.29,3.29,0,0,0,.36-1.24c-1.39-11-1.19-22-1.41-33a202.27,202.27,0,0,1,1.83-30.12c.19-1.54.44-3.08.52-4.63a3.17,3.17,0,0,0-.54-1.76c-5.39-8.32-10.91-16.56-16.19-24.94a98.94,98.94,0,0,1-5.09-9.94c-2-4.1-3.86-8.24-5.77-12.37a77.41,77.41,0,0,1-6-21.63c-.61-4.21-1.33-8.4-1.8-12.62-.39-3.45-.47-6.93-.74-10.39-.41-5.15-.89-10.29-1.3-15.44-.15-1.82-.24-3.65-.26-5.48a1.88,1.88,0,0,0-1.34-1.94,48.09,48.09,0,0,1-19.4-16.52,9.2,9.2,0,0,1-1.14-2.2c-.75-2.2,0-3.7,1.86-4.35,4.63-1.55,8.49-4.39,12.31-7.23a103.47,103.47,0,0,0,26.52-29.7,325.33,325.33,0,0,0,21-39.89c.44-1,1.21-1.16,2.09-1.35,8-1.74,16-3.23,23.91-5.26,20.28-5.22,40.62-10.27,60.33-17.27,6.54-2.33,12.85-5.23,19.28-7.84,1.17-.48,2.39-.82,3.8-1.29V350.2a2.31,2.31,0,0,1-1.66,2.55A200.3,200.3,0,0,1,385.61,366c-12.35,2.1-24.84,4-37.35,5.92-7.18,1.09-14.43,1.83-21.64,2.78a1.9,1.9,0,0,0-1.22.9c-3.34,6.78-6.63,13.59-9.95,20.37-.41.72-.85,1.42-1.32,2.09.37.09.81.17,1.23.3,4.85,1.63,9.62.78,14.17-.88,6.66-2.43,13.18-5.19,19.75-7.84a102.39,102.39,0,0,1,27.84-6.86,46.42,46.42,0,0,1,17,1.34,3.41,3.41,0,0,1,1.5.74c4.38,4.61,8.74,9.22,13,13.93a3.14,3.14,0,0,1,.32,2.32c-.95,5.22-1.85,10.45-3,15.63-2.64,11.67-5.47,23.31-8.12,35a54.93,54.93,0,0,0-.61,6c-.3,2.47-2,3.82-4.6,3.72-2.44-.1-3.81-1.65-4.08-4.12-.24-2.3,1-4.26,1.25-6.41a4.63,4.63,0,0,0-.13-2.09,22.57,22.57,0,0,0-5.51-8.12,2.14,2.14,0,0,0-2.51-.58c-4.16,1.34-8.3,2.73-12.52,3.88-5.19,1.41-10.51,1.17-15.84.81a81.6,81.6,0,0,1-21-4.51c-4.22-1.46-8.29-3.32-12.4-5.08-2-.85-3.84-2.13-5.91-2.77a35.19,35.19,0,0,0-13-1.72,2.72,2.72,0,0,0-2.78,2.66,2.55,2.55,0,0,0,0,.39c.5,4.45,1.14,8.89,1.76,13.33,1.58,11.43,5.31,22.38,8.31,33.5,4.52,16.77,11.59,32.66,18.31,48.66,3.53,8.4,7.5,16.66,11.74,24.75,1.9,3.65,1.43,6.94.68,10.55a51.1,51.1,0,0,0-.28,20.72A21,21,0,0,0,345,596.62c4.35,4.12,8.38,8.56,12.62,12.79a95.93,95.93,0,0,0,17.08,13c1.5.94,5-.25,5.65-1.93s1.27-3.45.43-5.31a2.94,2.94,0,0,1-.35-1.86,4.53,4.53,0,0,1,1.3-2.51A2.59,2.59,0,0,1,385,611a57.65,57.65,0,0,0,25,12.64,44.28,44.28,0,0,0,18.55.33c.28,0,.56-.1.85-.13a1.83,1.83,0,0,1,.32.09v32.67c-5.19,1-10.33,2.13-15.73,1.65a91.39,91.39,0,0,1-19.52-3.89A56.44,56.44,0,0,1,376,644.06c-12.2-9.8-23.88-20.13-35.49-30.54a52.51,52.51,0,0,1-7.41-8c-.87-1.2-1.92-2.27-3.18-3.73,0,.78-.1,1.2-.08,1.61.34,5.7.37,11.44,1.09,17.1,1.46,11.31,3.17,22.58,5,33.83,1.19,7.26,2.49,14.53,4.36,21.65.92,3.51,1.11,7.14,2.29,10.7a14.79,14.79,0,0,1-1.65-1,25,25,0,0,1-2.24-1.71c-5.14-4.52-10.09-9.22-16-12.93-6.32-4-12.12-8.73-18.62-12.38-8.64-4.85-17.86-8.63-28-9.73-4.52-.49-9.09-.63-13.59-1.26-8.16-1.13-16.36-.9-24.56-.94-3.21,0-6.42.1-9.62,0-5.53-.27-11.06-.72-16.59-1-2-.12-3.91,0-5.87-.09-1.19,0-2.38-.15-3.57-.22-7.66-.47-15.36-.57-23-1.5a103.57,103.57,0,0,1-27.9-7.61,82.19,82.19,0,0,1-15.61-8.15c-.74-.52-1.28-1.1-.94-1.91a2.37,2.37,0,0,1,1.34-1.11c4.87-1.6,8.83-4.73,13.24-7.11,14.52-7.86,27.92-17.1,39.42-28.72A283.65,283.65,0,0,0,212,562.52a42.59,42.59,0,0,0,3-3.82c2.26-3.59,4.41-7.25,6.53-10.92.16-.28-.1-.94-.37-1.26-1.54-1.81-3.2-3.53-4.72-5.35s-3.19-4-4.68-6a28.48,28.48,0,0,1-4.2-10.13,66,66,0,0,1-2.42-16,65.06,65.06,0,0,1,2.64-19.36,177.88,177.88,0,0,1,7.47-19.44c2.76-6.26,5.08-12.69,7.56-19.07a21.3,21.3,0,0,0,.67-2.84c-4.14-1.61-7.11-4.42-9.79-7.59-6.09-7.2-6.55-16.41-1-24,2.61-3.55,5.45-6.95,8.29-10.34a32.14,32.14,0,0,0,7-15.67,24.71,24.71,0,0,0,0-4.94c0-.31-.48-.76-.84-.9-13.17-5.1-26.36-10.13-39.5-15.26-6.42-2.51-12.74-5.27-19.16-7.77l-51.76-20c-9.12-3.48-18.26-6.91-27.48-10.13-18.34-6.39-36.11-14-53.77-21.92-.26-.12-.52-.23-.77-.37-.91-.47-1.8-1-1.5-2.19A2.45,2.45,0,0,1,36,305.5c1.91.14,3.82.35,5.73.53l36.38,3.44,33.52,3.13,33.51,3.17,36.53,3.41q18.12,1.69,36.23,3.44c1,.1,1.47-.07,1.82-1a67.41,67.41,0,0,1,13-21.64,2.32,2.32,0,0,0,.18-.39c-.91-.9-1.86-1.85-2.83-2.78l-42.68-41.4c-8.48-8.23-16.91-16.48-25.4-24.7q-14.44-14-29-27.91c-.71-.69-1.45-1.35-2.16-2L109,179.12c-1.13-1.12-2.32-2.2-3.43-3.33s-1.36-2.33-.58-3.18c1-1.07,2.13-.77,3.28-.22L149.74,192l76.34,36,40.21,19c2.1,1,4.2,2,6.36,2.85a2.37,2.37,0,0,0,1.91-.25c3.28-2.3,6.44-4.77,9.74-7s6.71-4.42,10.12-6.53c1-.62,1.32-1.13.85-2.28q-22.09-55-44.13-110.14-10.41-25.95-20.78-51.9c-.19-.46-.35-.94-.5-1.42a1.92,1.92,0,0,1,.88-2.51,2.17,2.17,0,0,1,2.82.62q3,3.35,5.94,6.71l36,40.74q16.47,18.71,33,37.39,17.83,20.28,35.76,40.53c2.59,2.94,5.22,5.86,7.77,8.83a2.84,2.84,0,0,0,3.34,1c6.38-1.74,12.81-3.34,19.21-5a3.11,3.11,0,0,0,2.56-2.42c6.61-23,13.35-45.94,20.05-68.9q14-47.94,28-95.87A36.42,36.42,0,0,1,427.12,27.19ZM315.26,411l.13.49,1.35.36c3.58.87,7.18,1.66,10.72,2.65a9.34,9.34,0,0,0,5.19.09A89.15,89.15,0,0,1,356.16,411c2.34,0,4.69.16,7,.11a58,58,0,0,1,25.61,5.35,2.52,2.52,0,0,0,1.48.24,4.54,4.54,0,0,0,3.08-5.32c-.5-1.66-1.88-2.5-3.2-3.38-10.74-7.24-23-9.19-35.72-8.69-9.05.35-17.75,2.74-26.18,5.75C323.77,406.6,319.57,409,315.26,411Zm7.68,17.3c.54.47.9.83,1.31,1.14,4.3,3.2,9,5.65,14.49,6.32s11,1.06,16.48,1.31c8.07.38,15.39-2.52,22.84-5.06a4.7,4.7,0,0,0-.25-.57,27.05,27.05,0,0,0-14.94-10.36A44.15,44.15,0,0,0,347.13,420a55.75,55.75,0,0,0-24.22,8.33Z" transform="translate(-33.2 -27.19)"/><path class="cls-1" d="M429.61,537.5v10.83c0,1.73-.3,3.46-.36,5.19,0,.77-.23,1.13-1.09,1.25-7.45,1.05-14.8,1.12-21.88-1.79-1.75-.71-3.48-1.46-5.22-2.19a3.41,3.41,0,0,0-1.06-.4c-2.87,0-5.78-.58-8.53.8-4.4,2.22-8.89,4.28-13.23,6.6-3.15,1.69-6.15,3.65-9.15,5.57a1.38,1.38,0,0,1-2-.12.76.76,0,0,1-.11-.14c-.65-.67-1-1.26-.2-2.11,6.44-7.09,12.72-14.3,19.31-21.25,3.66-3.86,8.55-6,13.93-6.91a8.34,8.34,0,0,1,3.55.08c2.94.84,5.76,2,8.69,2.86a37.06,37.06,0,0,0,7.35,1.66C423,537.71,426.31,537.5,429.61,537.5Z" transform="translate(-33.2 -27.19)"/><path class="cls-1" d="M429.78,569.12v7.6a1.86,1.86,0,0,1-.63,1.13c-6.47,5.86-14.28,7.71-22.74,5.82-5.75-1.28-11.2-3.75-16.85-5.52-3.22-1-6.57-1.64-9.83-2.53a42.41,42.41,0,0,1-4.78-1.7c-.17-.07-.27-.86-.09-1.06a8.19,8.19,0,0,1,1.74-1.42c3.67-2.34,7.36-4.65,11-7,.24-.15.51-.27.75-.42a3.82,3.82,0,0,1,4.42,0c5.56,3.17,11.78,4.5,18.13,5.29A63.22,63.22,0,0,0,429.78,569.12Z" transform="translate(-33.2 -27.19)"/><path class="cls-1" d="M429.74,510.87V521a61.88,61.88,0,0,1-6.68,1.88c-2.81.48-5.43-.54-7.79-1.89-4.17-2.4-8.44-4.66-12-8a7.8,7.8,0,0,0-6.18-2.47,1.64,1.64,0,0,1-.85-.1,8.08,8.08,0,0,0-6.67.4,7.62,7.62,0,0,1-7.14-.21c-2.49-1.38-4.94-2.81-7.3-4.36-2-1.32-1.79-3.67.48-4.54A42.82,42.82,0,0,1,381.8,500,34.46,34.46,0,0,1,394,499.6a13.49,13.49,0,0,1,3.06.72c5.89,2.32,11.47,5.07,15.8,9.74,2.3,2.48,5.58,2.51,8.7,2.21C424.26,512,426.89,511.38,429.74,510.87Z" transform="translate(-33.2 -27.19)"/></g></g></svg>